<svg data-v-423bf9ae="" xmlns="http://www.w3.org/2000/svg" viewBox="0 0 280.95920180956796 60" class="font"><!----><!----><!----><g data-v-423bf9ae="" id="e6ff5372-9137-422a-abf7-ca6bff31794e" fill="white" transform="matrix(6.122449456230433,0,0,6.122449456230433,-0.0000019057605413763667,-11.816328097660907)"><path d="M0.37 1.93L0.37 1.93L3.15 1.93Q5.00 1.93 5.51 2.87L5.51 2.87Q5.80 3.36 5.80 4.21L5.80 4.21L5.80 4.89Q5.80 5.86 4.96 6.45L4.96 6.45Q5.24 6.50 5.68 6.89L5.68 6.89L5.89 6.89Q6.31 7.31 6.43 7.71L6.43 7.71Q6.47 7.85 6.47 7.86L6.47 7.86L6.73 7.86L6.73 8.03L5.84 8.03L5.84 7.86L4.02 7.86L4.02 7.34L2.23 7.34L2.23 10.19L3.35 10.19L3.35 9.99L4.02 9.99L4.02 8.03L5.84 8.03L5.84 9.75L6.05 9.75L6.05 10.84L5.44 10.84L5.44 11.09L6.05 11.09L6.05 11.55L3.73 11.55L3.73 11.73L1.20 11.73L1.20 11.55L0.66 11.55L0.66 10.04L1.41 10.04L1.41 9.64L0.66 9.64Q0.64 8.49 0.64 7.93L0.64 7.93L0.64 7.21L0 7.21L0 7.02L0.64 7.02L0.64 6.64L0.33 6.64L0.33 1.97Q0.34 1.93 0.37 1.93ZM2.58 3.59L2.26 3.59L2.26 6.02L2.68 6.02Q3.42 6.02 3.65 5.77L3.65 5.77Q3.88 5.57 3.88 4.70L3.88 4.70L3.88 4.66Q3.88 3.91 3.65 3.76L3.65 3.76Q3.49 3.59 2.58 3.59L2.58 3.59ZM1.56 7.02L0.66 7.02L0.66 7.21L1.56 7.21L1.56 7.02ZM0.29 7.69L0.29 7.24L0.62 7.24L0.62 7.31Q0.62 7.34 0.59 7.34L0.59 7.34L0.38 7.34L0.38 7.41L0.57 7.41Q0.60 7.42 0.60 7.44L0.60 7.44L0.60 7.48Q0.60 7.51 0.57 7.51L0.57 7.51L0.38 7.51L0.38 7.59L0.62 7.59L0.62 7.66Q0.62 7.69 0.59 7.69L0.59 7.69L0.29 7.69ZM3.10 8.03L3.10 7.86L4.02 7.86L4.02 8.03L3.10 8.03ZM6.11 8.06L6.11 8.06L6.17 8.06Q6.20 8.07 6.20 8.09L6.20 8.09L6.20 8.38Q6.17 8.53 6.05 8.53L6.05 8.53Q5.89 8.50 5.89 8.38L5.89 8.38L5.89 8.36Q5.90 8.33 5.93 8.33L5.93 8.33L5.96 8.33Q6.00 8.33 6.02 8.43L6.02 8.43L6.08 8.43L6.08 8.09Q6.08 8.06 6.11 8.06ZM5.96 8.65L5.96 8.65L6.10 8.65Q6.33 8.65 6.33 8.90L6.33 8.90Q6.33 9.07 6.11 9.10L6.11 9.10L5.93 9.10L5.93 8.68Q5.93 8.65 5.96 8.65ZM6.10 8.75L6.05 8.75L6.05 9.00L6.11 9.00Q6.21 9.00 6.21 8.90L6.21 8.90L6.21 8.87Q6.21 8.75 6.10 8.75L6.10 8.75ZM5.96 9.24L5.96 9.24L6.21 9.24Q6.25 9.24 6.25 9.27L6.25 9.27L6.25 9.34L6.05 9.34L6.05 9.42L6.21 9.42L6.21 9.50L6.05 9.50L6.05 9.65Q6.05 9.69 6.02 9.69L6.02 9.69L5.93 9.69L5.93 9.27Q5.93 9.24 5.96 9.24ZM3.62 9.57L3.62 9.50L3.97 9.50L3.97 9.58L3.75 9.86L3.99 9.86L3.99 9.92Q3.99 9.95 3.95 9.95L3.95 9.95L3.64 9.95Q3.60 9.95 3.60 9.92L3.60 9.92L3.60 9.87L3.82 9.60L3.65 9.60Q3.62 9.60 3.62 9.57L3.62 9.57ZM2.28 9.86L2.28 9.79L2.30 9.79Q2.61 9.88 2.61 9.92L2.61 9.92L2.61 9.95Q2.58 10.00 2.30 10.10L2.30 10.10L2.28 10.07L2.28 10.06Q2.28 10.01 2.48 9.95L2.48 9.95Q2.48 9.92 2.28 9.86L2.28 9.86ZM7.25 1.96L7.25 1.96L9.17 1.96Q9.17 3.37 9.67 4.35L9.67 4.35Q10.19 5.64 10.39 6.39L10.39 6.39L10.39 6.41L10.40 6.41Q10.65 5.50 11.42 3.62L11.42 3.62Q11.62 2.72 11.62 1.96L11.62 1.96L13.43 1.96Q13.26 3.43 13.02 4.13L13.02 4.13L11.93 6.59L11.27 6.59L11.27 8.28L10.27 8.28L10.27 8.61L11.27 8.61L11.27 11.73L9.40 11.73Q9.37 11.73 9.37 11.70L9.37 11.70L9.37 10.17L9.07 10.17L9.07 7.46L9.63 7.46L9.63 7.21L9.02 7.21Q8.95 7.12 7.89 4.67L7.89 4.67Q7.44 3.68 7.44 3.49L7.44 3.49L8.25 3.49L8.25 3.14L7.38 3.14Q7.25 2.06 7.25 1.96ZM6.08 3.49L6.08 3.14L7.38 3.14L7.43 3.49L6.08 3.49ZM11.27 8.61L11.27 8.28L12.08 8.28L12.08 8.61L11.27 8.61ZM13.48 3.57L13.48 1.93L19.22 1.93L19.22 3.57L17.32 3.57L17.32 10.34L18.18 10.34L18.18 10.54L17.32 10.54L17.32 11.29L16.81 11.29L16.81 11.55L17.17 11.55L17.17 11.73L15.43 11.73Q15.39 11.73 15.39 11.70L15.39 11.70L15.39 3.57L13.48 3.57ZM17.31 10.34L16.65 10.34L16.65 10.54L17.31 10.54L17.31 10.34ZM19.45 6.80L19.45 2.00L24.24 2.00L24.24 3.60Q24.24 3.63 24.21 3.63L24.21 3.63L21.36 3.63L21.36 5.74L23.91 5.74L23.91 5.76Q23.91 5.84 23.88 6.79L23.88 6.79Q23.86 6.79 23.86 6.80L23.86 6.80L23.98 6.80L23.98 7.29L21.77 7.29L21.77 9.29L21.18 9.29L21.18 9.49L21.77 9.49L21.77 10.10L24.27 10.10L24.27 10.32L24.08 10.32L24.08 11.52L21.08 11.52L21.08 11.73L19.66 11.73L19.66 8.24L19.45 8.24L19.45 7.01L17.89 7.01L17.89 6.80L19.45 6.80ZM20.26 6.80L19.46 6.80L19.46 7.01L20.26 7.01L20.26 6.80ZM25.38 1.93L25.38 1.93L28.16 1.93Q30.02 1.93 30.52 2.87L30.52 2.87Q30.81 3.36 30.81 4.21L30.81 4.21L30.81 4.89Q30.81 5.86 29.97 6.45L29.97 6.45Q30.26 6.50 30.69 6.89L30.69 6.89L30.91 6.89Q31.32 7.31 31.45 7.71L31.45 7.71Q31.48 7.85 31.48 7.86L31.48 7.86L31.75 7.86L31.75 8.03L30.86 8.03L30.86 7.86L29.03 7.86L29.03 7.34L27.24 7.34L27.24 10.19L28.36 10.19L28.36 9.99L29.03 9.99L29.03 8.03L30.86 8.03L30.86 9.75L31.06 9.75L31.06 10.84L30.45 10.84L30.45 11.09L31.06 11.09L31.06 11.55L28.75 11.55L28.75 11.73L26.22 11.73L26.22 11.55L25.67 11.55L25.67 10.04L26.42 10.04L26.42 9.64L25.67 9.64Q25.65 8.49 25.65 7.93L25.65 7.93L25.65 7.21L25.01 7.21L25.01 7.02L25.65 7.02L25.65 6.64L25.35 6.64L25.35 1.97Q25.35 1.93 25.38 1.93ZM27.59 3.59L27.28 3.59L27.28 6.02L27.69 6.02Q28.43 6.02 28.66 5.77L28.66 5.77Q28.90 5.57 28.90 4.70L28.90 4.70L28.90 4.66Q28.90 3.91 28.66 3.76L28.66 3.76Q28.51 3.59 27.59 3.59L27.59 3.59ZM26.57 7.02L25.67 7.02L25.67 7.21L26.57 7.21L26.57 7.02ZM25.30 7.69L25.30 7.24L25.63 7.24L25.63 7.31Q25.63 7.34 25.60 7.34L25.60 7.34L25.40 7.34L25.40 7.41L25.58 7.41Q25.61 7.42 25.61 7.44L25.61 7.44L25.61 7.48Q25.61 7.51 25.58 7.51L25.58 7.51L25.40 7.51L25.40 7.59L25.63 7.59L25.63 7.66Q25.63 7.69 25.60 7.69L25.60 7.69L25.30 7.69ZM28.11 8.03L28.11 7.86L29.03 7.86L29.03 8.03L28.11 8.03ZM31.12 8.06L31.12 8.06L31.18 8.06Q31.21 8.07 31.21 8.09L31.21 8.09L31.21 8.38Q31.19 8.53 31.06 8.53L31.06 8.53Q30.91 8.50 30.91 8.38L30.91 8.38L30.91 8.36Q30.91 8.33 30.94 8.33L30.94 8.33L30.97 8.33Q31.01 8.33 31.03 8.43L31.03 8.43L31.09 8.43L31.09 8.09Q31.10 8.06 31.12 8.06ZM30.97 8.65L30.97 8.65L31.11 8.65Q31.34 8.65 31.34 8.90L31.34 8.90Q31.34 9.07 31.12 9.10L31.12 9.10L30.94 9.10L30.94 8.68Q30.95 8.65 30.97 8.65ZM31.11 8.75L31.06 8.75L31.06 9.00L31.12 9.00Q31.23 9.00 31.23 8.90L31.23 8.90L31.23 8.87Q31.23 8.75 31.11 8.75L31.11 8.75ZM30.97 9.24L30.97 9.24L31.23 9.24Q31.26 9.24 31.26 9.27L31.26 9.27L31.26 9.34L31.06 9.34L31.06 9.42L31.23 9.42L31.23 9.50L31.06 9.50L31.06 9.65Q31.06 9.69 31.03 9.69L31.03 9.69L30.94 9.69L30.94 9.27Q30.95 9.24 30.97 9.24ZM28.63 9.57L28.63 9.50L28.98 9.50L28.98 9.58L28.77 9.86L29.00 9.86L29.00 9.92Q29.00 9.95 28.96 9.95L28.96 9.95L28.65 9.95Q28.62 9.95 28.62 9.92L28.62 9.92L28.62 9.87L28.83 9.60L28.66 9.60Q28.63 9.60 28.63 9.57L28.63 9.57ZM27.29 9.86L27.29 9.79L27.31 9.79Q27.62 9.88 27.62 9.92L27.62 9.92L27.62 9.95Q27.59 10.00 27.31 10.10L27.31 10.10L27.29 10.07L27.29 10.06Q27.29 10.01 27.49 9.95L27.49 9.95Q27.49 9.92 27.29 9.86L27.29 9.86ZM35.55 1.95L35.55 1.95Q37.65 1.95 38.32 3.42L38.32 3.42Q38.69 4.14 38.69 6.19L38.69 6.19L38.69 6.23L37.97 6.23L37.97 6.56L38.69 6.56L38.69 10.10L38.21 10.10L38.21 11.37L37.26 11.37L37.26 11.73L33.94 11.73L33.94 11.37L33.54 11.37L33.54 10.10L32.68 10.10L32.68 9.10L33.19 9.10L33.19 8.57L32.68 8.57L32.68 9.10L31.47 9.10L31.47 8.57L32.39 8.57Q32.38 7.38 32.38 6.74L32.38 6.74L32.38 5.91Q32.38 3.58 33.16 2.80L33.16 2.80Q33.88 1.95 35.55 1.95ZM34.35 5.32L34.35 5.32L34.37 5.32L34.35 5.35L34.35 6.23L33.62 6.23L33.62 6.56L34.35 6.56Q34.34 8.67 34.34 9.75L34.34 9.75L34.34 10.10L35.97 10.10L35.97 9.56L36.72 9.56L36.72 9.54Q36.72 8.54 36.71 6.75L36.71 6.75Q36.71 6.68 36.72 6.38L36.72 6.38Q36.72 4.45 36.50 4.01L36.50 4.01Q36.26 3.58 35.64 3.58L35.64 3.58L35.40 3.58Q34.66 3.58 34.48 4.24L34.48 4.24Q34.40 4.56 34.35 5.32ZM38.69 6.56L38.69 6.23L39.87 6.23L39.87 6.56L38.69 6.56ZM39.62 1.99L39.62 1.94L41.60 1.94L41.60 2.02Q41.60 2.95 41.94 3.44L41.94 3.44Q42.83 5.01 42.83 5.13L42.83 5.13L42.85 5.13Q42.85 5.06 43.90 3.06L43.90 3.06Q44.03 2.55 44.03 2.15L44.03 2.15L44.03 1.94L45.89 1.94L45.89 1.96Q45.89 3.34 45.40 4.03L45.40 4.03Q45.29 4.24 43.82 6.51L43.82 6.51Q44.13 7.01 44.13 7.04L44.13 7.04L43.52 7.04L43.52 7.32L44.30 7.32Q44.38 7.40 45.35 9.02L45.35 9.02L45.35 10.25L45.68 10.25L45.68 11.01L44.95 11.01L44.95 11.24L45.68 11.24L45.68 11.61L43.47 11.61L43.47 9.02L43.22 9.02Q42.77 8.04 42.77 7.98L42.77 7.98L42.75 7.98Q42.62 8.32 42.27 9.02L42.27 9.02L42.27 10.36L41.60 10.36L41.60 11.72Q41.09 11.73 40.85 11.73L40.85 11.73L39.59 11.73L39.42 11.72L39.42 10.12L39.87 10.12L39.87 8.72L41.00 8.72L41.00 8.47L40.48 8.47L40.48 7.52L41.19 7.52Q41.23 7.46 41.77 6.60L41.77 6.60L41.77 6.56Q40.17 4.17 40.03 3.93L40.03 3.93Q39.62 3.29 39.62 1.99L39.62 1.99Z"></path></g><!----><!----></svg>