<svg data-v-423bf9ae="" xmlns="http://www.w3.org/2000/svg" viewBox="0 0 41.204084957207264 60" class="font"><!----><!----><!----><g data-v-423bf9ae="" id="b8e2a884-5eac-4433-b109-c3a6c7f7d1be" fill="black" transform="matrix(6.122449456230433,0,0,6.122449456230433,9.116704156042488e-7,-11.816328097660907)"><path d="M0.37 1.93L0.37 1.93L3.15 1.93Q5.00 1.93 5.51 2.87L5.51 2.87Q5.80 3.36 5.80 4.21L5.80 4.21L5.80 4.89Q5.80 5.86 4.96 6.45L4.96 6.45Q5.24 6.50 5.68 6.89L5.68 6.89L5.89 6.89Q6.31 7.31 6.43 7.71L6.43 7.71Q6.47 7.85 6.47 7.86L6.47 7.86L6.73 7.86L6.73 8.03L5.84 8.03L5.84 7.86L4.02 7.86L4.02 7.34L2.23 7.34L2.23 10.19L3.35 10.19L3.35 9.99L4.02 9.99L4.02 8.03L5.84 8.03L5.84 9.75L6.05 9.75L6.05 10.84L5.44 10.84L5.44 11.09L6.05 11.09L6.05 11.55L3.73 11.55L3.73 11.73L1.20 11.73L1.20 11.55L0.66 11.55L0.66 10.04L1.41 10.04L1.41 9.64L0.66 9.64Q0.64 8.49 0.64 7.93L0.64 7.93L0.64 7.21L0 7.21L0 7.02L0.64 7.02L0.64 6.64L0.33 6.64L0.33 1.97Q0.34 1.93 0.37 1.93ZM2.58 3.59L2.26 3.59L2.26 6.02L2.68 6.02Q3.42 6.02 3.65 5.77L3.65 5.77Q3.88 5.57 3.88 4.70L3.88 4.70L3.88 4.66Q3.88 3.91 3.65 3.76L3.65 3.76Q3.49 3.59 2.58 3.59L2.58 3.59ZM1.56 7.02L0.66 7.02L0.66 7.21L1.56 7.21L1.56 7.02ZM0.29 7.69L0.29 7.24L0.62 7.24L0.62 7.31Q0.62 7.34 0.59 7.34L0.59 7.34L0.38 7.34L0.38 7.41L0.57 7.41Q0.60 7.42 0.60 7.44L0.60 7.44L0.60 7.48Q0.60 7.51 0.57 7.51L0.57 7.51L0.38 7.51L0.38 7.59L0.62 7.59L0.62 7.66Q0.62 7.69 0.59 7.69L0.59 7.69L0.29 7.69ZM3.10 8.03L3.10 7.86L4.02 7.86L4.02 8.03L3.10 8.03ZM6.11 8.06L6.11 8.06L6.17 8.06Q6.20 8.07 6.20 8.09L6.20 8.09L6.20 8.38Q6.17 8.53 6.05 8.53L6.05 8.53Q5.89 8.50 5.89 8.38L5.89 8.38L5.89 8.36Q5.90 8.33 5.93 8.33L5.93 8.33L5.96 8.33Q6.00 8.33 6.02 8.43L6.02 8.43L6.08 8.43L6.08 8.09Q6.08 8.06 6.11 8.06ZM5.96 8.65L5.96 8.65L6.10 8.65Q6.33 8.65 6.33 8.90L6.33 8.90Q6.33 9.07 6.11 9.10L6.11 9.10L5.93 9.10L5.93 8.68Q5.93 8.65 5.96 8.65ZM6.10 8.75L6.05 8.75L6.05 9.00L6.11 9.00Q6.21 9.00 6.21 8.90L6.21 8.90L6.21 8.87Q6.21 8.75 6.10 8.75L6.10 8.75ZM5.96 9.24L5.96 9.24L6.21 9.24Q6.25 9.24 6.25 9.27L6.25 9.27L6.25 9.34L6.05 9.34L6.05 9.42L6.21 9.42L6.21 9.50L6.05 9.50L6.05 9.65Q6.05 9.69 6.02 9.69L6.02 9.69L5.93 9.69L5.93 9.27Q5.93 9.24 5.96 9.24ZM3.62 9.57L3.62 9.50L3.97 9.50L3.97 9.58L3.75 9.86L3.99 9.86L3.99 9.92Q3.99 9.95 3.95 9.95L3.95 9.95L3.64 9.95Q3.60 9.95 3.60 9.92L3.60 9.92L3.60 9.87L3.82 9.60L3.65 9.60Q3.62 9.60 3.62 9.57L3.62 9.57ZM2.28 9.86L2.28 9.79L2.30 9.79Q2.61 9.88 2.61 9.92L2.61 9.92L2.61 9.95Q2.58 10.00 2.30 10.10L2.30 10.10L2.28 10.07L2.28 10.06Q2.28 10.01 2.48 9.95L2.48 9.95Q2.48 9.92 2.28 9.86L2.28 9.86Z"></path></g><!----><!----></svg>