<svg xmlns="http://www.w3.org/2000/svg" viewBox="0 0 24 24" width="24" height="24" fill="currentColor">
  <path d="M12 2C6.48 2 2 6.48 2 12s4.48 10 10 10 10-4.48 10-10S17.52 2 12 2zm4.64 6.8c-.15 1.58-.8 5.42-1.13 7.19-.14.75-.42 1-.68 1.03-.58.05-1.02-.38-1.58-.75-.88-.58-1.38-.94-2.23-1.5-1-.65-.35-1.01.22-1.59.15-.15 2.71-2.48 2.76-2.69.01-.03.01-.14-.07-.2-.08-.06-.19-.04-.27-.02-.12.02-1.96 1.24-5.54 3.65-.52.36-.99.54-1.41.53-.46-.01-1.34-.26-2-.47-.8-.26-1.43-.4-1.38-.85.03-.24.36-.48.99-.74 3.88-1.69 6.46-2.8 7.74-3.32 3.68-1.5 4.44-1.76 4.94-1.77.11 0 .36.03.52.16.14.11.18.27.2.42-.01.1-.02.21-.03.32z"/>
</svg>
